name Walk2.mot
datacolumns 19
datarows 15
range 1.25300000 1.26700000
endheader

                time	   L_ground_force_vx	   L_ground_force_vy	   L_ground_force_vz	   L_ground_force_px	   L_ground_force_py	   L_ground_force_pz	   R_ground_force_vx	   R_ground_force_vy	   R_ground_force_vz	   R_ground_force_px	   R_ground_force_py	   R_ground_force_pz	   L_ground_torque_x	   L_ground_torque_y	   L_ground_torque_z	   R_ground_torque_x	   R_ground_torque_y	   R_ground_torque_z	
          1.25300000	          0.22477688	         -0.03911179	          0.01213344	          0.00247805	          0.00000000	          0.00030705	        -26.74926871	        688.31527686	        -45.13091013	          0.12537569	          0.00000000	          0.08028820	          0.00000000	          0.00063217	          0.00000000	          0.00000000	         -0.18409743	          0.00000000	
          1.25400000	          0.22791112	          0.00732904	          0.00767415	          0.00231446	          0.00000000	          0.00029274	        -26.14012203	        686.34739289	        -45.16627692	          0.12579633	          0.00000000	          0.08028472	          0.00000000	          0.00061102	          0.00000000	          0.00000000	         -0.15949623	          0.00000000	
          1.25500000	          0.22991766	          0.04979358	          0.00356502	          0.00215602	          0.00000000	          0.00027854	        -25.53861576	        684.40379250	        -45.20052648	          0.12622226	          0.00000000	          0.08028178	          0.00000000	          0.00058936	          0.00000000	          0.00000000	         -0.13400541	          0.00000000	
          1.25600000	          0.23088478	          0.08845946	         -0.00020822	          0.00200291	          0.00000000	          0.00026449	        -24.94468187	        682.48529930	        -45.23357505	          0.12665344	          0.00000000	          0.08027934	          0.00000000	          0.00056731	          0.00000000	          0.00000000	         -0.10767024	          0.00000000	
          1.25700000	          0.23089722	          0.12350353	         -0.00365985	          0.00185526	          0.00000000	          0.00025064	        -24.35824682	        680.59270610	        -45.26534648	          0.12708980	          0.00000000	          0.08027738	          0.00000000	          0.00054500	          0.00000000	          0.00000000	         -0.08053664	          0.00000000	
          1.25800000	          0.23003609	          0.15510131	         -0.00680418	          0.00171314	          0.00000000	          0.00023702	        -23.77923182	        678.72677089	        -45.29577346	          0.12753128	          0.00000000	          0.08027587	          0.00000000	          0.00052252	          0.00000000	          0.00000000	         -0.05265071	          0.00000000	
          1.25900000	          0.22837892	          0.18342644	         -0.00965545	          0.00157663	          0.00000000	          0.00022366	        -23.20755332	        676.88821301	        -45.32479884	          0.12797781	          0.00000000	          0.08027479	          0.00000000	          0.00049998	          0.00000000	          0.00000000	         -0.02405821	          0.00000000	
          1.26000000	          0.22599967	          0.20865011	         -0.01222781	          0.00144578	          0.00000000	          0.00021059	        -22.64312359	        675.07771010	        -45.35237666	          0.12842932	          0.00000000	          0.08027409	          0.00000000	          0.00047746	          0.00000000	          0.00000000	          0.00519596	          0.00000000	
          1.26100000	          0.22296870	          0.23094072	         -0.01453525	          0.00132058	          0.00000000	          0.00019784	        -22.08585172	        673.29589646	        -45.37847278	          0.12888573	          0.00000000	          0.08027373	          0.00000000	          0.00045506	          0.00000000	          0.00000000	          0.03506812	          0.00000000	
          1.26200000	          0.21935290	          0.25046342	         -0.01659158	          0.00120104	          0.00000000	          0.00018543	        -21.53564472	        671.54336330	        -45.40306495	          0.12934695	          0.00000000	          0.08027367	          0.00000000	          0.00043284	          0.00000000	          0.00000000	          0.06551598	          0.00000000	
          1.26300000	          0.21521564	          0.26737978	         -0.01841037	          0.00108713	          0.00000000	          0.00017337	        -20.99240895	        669.82066042	        -45.42614230	          0.12981290	          0.00000000	          0.08027386	          0.00000000	          0.00041087	          0.00000000	          0.00000000	          0.09649865	          0.00000000	
          1.26400000	          0.21061690	          0.28184747	         -0.02000496	          0.00097879	          0.00000000	          0.00016168	        -20.45605134	        668.12829867	        -45.44770453	          0.13028349	          0.00000000	          0.08027426	          0.00000000	          0.00038922	          0.00000000	          0.00000000	          0.12797668	          0.00000000	
          1.26500000	          0.20561329	          0.29402002	         -0.02138837	          0.00087597	          0.00000000	          0.00015037	        -19.92648055	        666.46675246	        -45.46776114	          0.13075863	          0.00000000	          0.08027481	          0.00000000	          0.00036794	          0.00000000	          0.00000000	          0.15991211	          0.00000000	
          1.26600000	          0.20025815	          0.30404658	         -0.02257334	          0.00077857	          0.00000000	          0.00013946	        -19.40360774	        664.83646191	        -45.48633077	          0.13123824	          0.00000000	          0.08027548	          0.00000000	          0.00034708	          0.00000000	          0.00000000	          0.19226864	          0.00000000	
          1.26700000	          0.19460159	          0.31207172	         -0.02357225	          0.00068652	          0.00000000	          0.00012894	        -18.88734701	        663.23783501	        -45.50344084	          0.13172221	          0.00000000	          0.08027620	          0.00000000	          0.00032668	          0.00000000	          0.00000000	          0.22501181	          0.00000000	
